<svg width="100%" viewBox="0 0 680 680" xmlns="http://www.w3.org/2000/svg">
<g transform="translate(115, 50)" style="fill:rgb(0, 0, 0);stroke:none;color:rgb(255, 255, 255);stroke-width:1px;stroke-linecap:butt;stroke-linejoin:miter;opacity:1;font-family:system-ui,sans-serif;font-size:16px;font-weight:400;text-anchor:start;dominant-baseline:auto">
  <path d="M225 0 L450 75 L450 330 Q450 490 225 570 Q0 490 0 330 L0 75 Z" style="fill:rgb(28, 25, 23);stroke:none"/>
  <path d="M225 22 L428 94 L428 330 Q428 476 225 548 Q22 476 22 330 L22 94 Z" style="fill:rgb(35, 32, 32);stroke:none"/>
  <path d="M225 0 L450 75 L450 330 Q450 490 225 570 Q0 490 0 330 L0 75 Z" style="fill:none;stroke:rgb(160, 92, 32);stroke-width:1.5px;opacity:0.7"/>
  <path d="M225 22 L428 94 L428 330 Q428 476 225 548 Q22 476 22 330 L22 94 Z" style="fill:none;stroke:rgb(120, 53, 15);stroke-width:0.75px;opacity:0.3"/>
  <polygon points="80,100 145,100 225,360 305,100 370,100 225,470" style="fill:rgb(240, 212, 160);stroke:none"/>
  <polygon points="225,360 305,100 370,100 225,470" style="fill:rgb(200, 137, 90);stroke:none"/>
  <circle cx="225" cy="484" r="14" style="fill:rgb(240, 212, 160);stroke:none"/>
</g>
</svg>
